<?xml version="1.0" encoding="UTF-8" standalone="no"?>
<!DOCTYPE svg PUBLIC "-//W3C//DTD SVG 1.1//EN" "http://www.w3.org/Graphics/SVG/1.1/DTD/svg11.dtd">
<svg width="100%" height="100%" viewBox="0 0 128 128" version="1.1" xmlns="http://www.w3.org/2000/svg" xmlns:xlink="http://www.w3.org/1999/xlink" xml:space="preserve" xmlns:serif="http://www.serif.com/" style="fill-rule:evenodd;clip-rule:evenodd;stroke-linejoin:round;stroke-miterlimit:2;">
    <g transform="matrix(1.3913,0,0,1.3913,1.3913,3.55271e-15)">
        <path d="M91,23L91,69C91,81.694 80.694,92 68,92L22,92C9.306,92 -1,81.694 -1,69L-1,23C-1,10.306 9.306,0 22,0L68,0C80.694,0 91,10.306 91,23Z" style="fill:rgb(44,44,51);"/>
    </g>
    <g transform="matrix(3.25,0,0,3.25,38,25)">
        <circle cx="12" cy="12" r="4" style="fill:rgb(25,188,254);"/>
        <path d="M4,24C6.209,24 8,22.209 8,20L8,16L4,16C1.791,16 0,17.791 0,20C0,22.209 1.791,24 4,24Z" style="fill:rgb(9,207,131);"/>
        <path d="M4,16L8,16L8,8L4,8C1.791,8 0,9.791 0,12C0,14.209 1.791,16 4,16Z" style="fill:rgb(162,89,255);"/>
        <path d="M4,8L8,8L8,0L4,0C1.791,0 0,1.791 0,4C0,6.209 1.791,8 4,8Z" style="fill:rgb(242,78,30);"/>
        <path d="M12,8L8,8L8,0L12,0C14.209,0 16,1.791 16,4C16,6.209 14.209,8 12,8Z" style="fill:rgb(255,114,98);"/>
    </g>
</svg>
