<?xml version="1.0" encoding="UTF-8" standalone="no"?>
<!DOCTYPE svg PUBLIC "-//W3C//DTD SVG 1.1//EN" "http://www.w3.org/Graphics/SVG/1.1/DTD/svg11.dtd">
<svg width="100%" height="100%" viewBox="0 0 800 612" version="1.1" xmlns="http://www.w3.org/2000/svg" xmlns:xlink="http://www.w3.org/1999/xlink" xml:space="preserve" xmlns:serif="http://www.serif.com/" style="fill-rule:evenodd;clip-rule:evenodd;stroke-linejoin:round;stroke-miterlimit:2;">
    <g transform="matrix(2.038045,0,0,2.038045,0,-94)">
        <path d="M359.822,68.105L32.711,68.105C26.699,68.105 21.786,72.953 21.786,79.03L21.786,313.503C21.786,319.515 26.634,324.428 32.711,324.428L359.822,324.428C365.834,324.428 370.747,319.58 370.747,313.503L370.747,79.03C370.747,72.954 365.834,68.105 359.822,68.105Z" style="fill:white;fill-rule:nonzero;"/>
    </g>
    <g transform="matrix(2.038045,0,0,2.038045,0,-94)">
        <path d="M359.822,46.319L32.711,46.319C14.675,46.319 0,60.929 0,79.03L0,313.503C0,331.604 14.675,346.214 32.711,346.214L359.822,346.214C377.858,346.214 392.533,331.539 392.533,313.503L392.533,79.03C392.533,60.929 377.859,46.319 359.822,46.319ZM370.747,313.438C370.747,319.45 365.899,324.363 359.822,324.363L32.711,324.363C26.699,324.363 21.786,319.514 21.786,313.438L21.786,79.03C21.786,73.018 26.634,68.105 32.711,68.105L359.822,68.105C365.834,68.105 370.747,72.953 370.747,79.03L370.747,313.503L370.747,313.438Z" style="fill:rgb(70,70,127);fill-rule:nonzero;"/>
    </g>
    <g transform="matrix(2.038045,0,0,2.038045,0,-94)">
        <path d="M43.572,299.152L43.572,93.253C43.572,91.378 45.059,89.956 46.869,89.956L345.471,89.956C347.346,89.956 348.768,91.443 348.768,93.253L348.768,299.217C348.768,301.092 347.281,302.514 345.471,302.514L46.998,302.514C45.123,302.578 43.572,301.026 43.572,299.152Z" style="fill:rgb(208,47,68);fill-rule:nonzero;"/>
    </g>
    <g transform="matrix(2.038045,0,0,2.038045,0,-94)">
        <path d="M314.828,128.097L236.218,128.097C230.206,128.097 225.293,123.249 225.293,117.172C225.293,111.16 230.141,106.247 236.218,106.247L314.828,106.247C320.84,106.247 325.753,111.095 325.753,117.172C325.689,123.184 320.84,128.097 314.828,128.097Z" style="fill:white;fill-rule:nonzero;"/>
        <path d="M314.828,170.57L274.036,170.57C268.024,170.57 263.111,165.722 263.111,159.645C263.111,153.633 267.959,148.72 274.036,148.72L314.828,148.72C320.84,148.72 325.753,153.568 325.753,159.645C325.689,165.721 320.84,170.57 314.828,170.57Z" style="fill:white;fill-rule:nonzero;"/>
    </g>
    <g transform="matrix(2.522823,0,0,2.522823,-25.541498,-146.101514)">
        <path d="M90.505,129.261C81.713,129.261 74.537,136.437 74.537,145.229C74.537,154.021 81.713,161.197 90.505,161.197C99.297,161.197 106.473,154.021 106.473,145.229C106.473,136.436 99.297,129.261 90.505,129.261Z" style="fill:white;fill-rule:nonzero;"/>
    </g>
    <g transform="matrix(2.038045,0,0,2.038045,0,-94)">
        <g transform="matrix(1.237864,0,0,1.237864,-12.532351,-25.564455)">
            <path d="M90.505,107.475C69.624,107.475 52.687,124.412 52.687,145.293C52.687,166.174 69.624,183.111 90.505,183.111C111.386,183.111 128.323,166.109 128.323,145.293C128.259,124.347 111.257,107.475 90.505,107.475ZM90.505,161.131C81.713,161.131 74.537,153.955 74.537,145.163C74.537,136.371 81.713,129.195 90.505,129.195C99.297,129.195 106.473,136.371 106.473,145.163C106.473,153.956 99.297,161.131 90.505,161.131Z" style="fill:rgb(70,70,127);fill-rule:nonzero;"/>
        </g>
        <g transform="matrix(0.806697,0,0,1,71.581328,0)">
            <path d="M271.451,210.78L120.63,210.78C114.618,210.78 109.705,205.932 109.705,199.855C109.705,193.778 114.553,188.93 120.63,188.93L271.386,188.93C277.398,188.93 282.311,193.778 282.311,199.855C282.376,205.867 277.463,210.78 271.451,210.78Z" style="fill:white;fill-rule:nonzero;"/>
        </g>
        <path d="M173.446,249.503L74.537,249.503C68.525,249.503 63.612,244.655 63.612,238.578C63.612,232.566 68.46,227.653 74.537,227.653L173.446,227.653C179.458,227.653 184.371,232.501 184.371,238.578C184.372,244.525 179.523,249.503 173.446,249.503Z" style="fill:white;fill-rule:nonzero;"/>
        <path d="M135.628,291.071L74.537,291.071C68.525,291.071 63.612,286.223 63.612,280.146C63.612,274.069 68.46,269.221 74.537,269.221L135.628,269.221C141.64,269.221 146.553,274.07 146.553,280.146C146.489,286.093 141.64,291.071 135.628,291.071Z" style="fill:white;fill-rule:nonzero;"/>
    </g>
</svg>
