<?xml version="1.0" encoding="UTF-8" standalone="no"?>
<!DOCTYPE svg PUBLIC "-//W3C//DTD SVG 1.1//EN" "http://www.w3.org/Graphics/SVG/1.1/DTD/svg11.dtd">
<svg width="100%" height="100%" viewBox="0 0 800 800" version="1.1" xmlns="http://www.w3.org/2000/svg" xmlns:xlink="http://www.w3.org/1999/xlink" xml:space="preserve" xmlns:serif="http://www.serif.com/" style="fill-rule:evenodd;clip-rule:evenodd;stroke-linejoin:round;stroke-miterlimit:2;">
    <g transform="matrix(33.333333,0,0,33.333333,0,0)">
        <rect x="0" y="0" width="24" height="24" style="fill:white;"/>
    </g>
    <g transform="matrix(33.333333,0,0,33.333333,0,0)">
        <path d="M7.25,2.388C8.549,2.099 10.124,2 12,2C13.876,2 15.451,2.099 16.75,2.388C18.06,2.679 19.149,3.176 19.986,4.014C20.824,4.851 21.321,5.94 21.612,7.25C21.901,8.549 22,10.124 22,12C22,13.876 21.901,15.451 21.612,16.75C21.321,18.06 20.824,19.149 19.986,19.986C19.149,20.824 18.06,21.321 16.75,21.612C15.451,21.901 13.876,22 12,22C10.124,22 8.549,21.901 7.25,21.612C5.94,21.321 4.851,20.824 4.014,19.986C3.176,19.149 2.679,18.06 2.388,16.75C2.099,15.451 2,13.876 2,12C2,10.124 2.099,8.549 2.388,7.25C2.679,5.94 3.176,4.851 4.014,4.014C4.851,3.176 5.94,2.679 7.25,2.388ZM13,8C13,7.448 12.552,7 12,7C11.448,7 11,7.448 11,8L11,13.586L9.707,12.293C9.317,11.902 8.683,11.902 8.293,12.293C7.902,12.683 7.902,13.317 8.293,13.707L11.206,16.62C11.221,16.635 11.236,16.65 11.252,16.664C11.435,16.87 11.702,17 12,17C12.298,17 12.565,16.87 12.748,16.664C12.764,16.65 12.779,16.635 12.794,16.62L15.707,13.707C16.098,13.317 16.098,12.683 15.707,12.293C15.317,11.902 14.683,11.902 14.293,12.293L13,13.586L13,8Z" style="fill:rgb(50,50,50);"/>
    </g>
</svg>
