<?xml version="1.0" encoding="UTF-8" standalone="no"?>
<!DOCTYPE svg PUBLIC "-//W3C//DTD SVG 1.1//EN" "http://www.w3.org/Graphics/SVG/1.1/DTD/svg11.dtd">
<svg width="100%" height="100%" viewBox="0 0 21 22" version="1.1" xmlns="http://www.w3.org/2000/svg" xmlns:xlink="http://www.w3.org/1999/xlink" xml:space="preserve" xmlns:serif="http://www.serif.com/" style="fill-rule:evenodd;clip-rule:evenodd;stroke-linejoin:round;stroke-miterlimit:2;">
    <g id="logo_svg" transform="matrix(1,0,0,1,-52,0)">
        <g id="logo_svg-2" transform="matrix(1,0,0,1,0.527,2.437)">
            <g id="Path_8" transform="matrix(1,0,0,1,52.531,-2.437)">
                <path d="M2.066,0L16.751,0C17.884,-0 18.817,0.933 18.817,2.066L18.817,19.934C18.817,21.067 17.884,22 16.751,22L2.066,22C0.933,22 0,21.067 0,19.934L0,2.066C-0,0.933 0.933,0 2.066,0Z" style="fill:rgb(107,155,210);fill-rule:nonzero;"/>
            </g>
            <g id="Path_4" transform="matrix(1,0,0,1,-1.633,-2.509)">
                <g id="Group_2">
                    <path id="Path_41" serif:id="Path_4" d="M59.5,7.91L58.781,7.91L58.781,9.882L57.263,9.882L57.263,3.082L60.225,3.082C60.547,3.08 60.866,3.145 61.162,3.271C61.741,3.513 62.202,3.973 62.444,4.552C62.57,4.848 62.635,5.168 62.633,5.49C62.634,5.741 62.594,5.99 62.515,6.228C62.44,6.458 62.331,6.675 62.194,6.874C62.058,7.071 61.894,7.248 61.708,7.398C61.522,7.549 61.312,7.669 61.087,7.752L62.631,9.879L60.769,9.879L59.5,7.91ZM58.777,6.482L60.227,6.482C60.359,6.483 60.49,6.457 60.611,6.404C60.849,6.303 61.039,6.113 61.14,5.875C61.193,5.754 61.219,5.623 61.218,5.491C61.222,5.247 61.129,5.011 60.961,4.834C60.8,4.656 60.582,4.541 60.344,4.509L58.777,4.509L58.777,6.482Z" style="fill:rgb(247,247,247);fill-rule:nonzero;"/>
                </g>
            </g>
            <g id="Path_5" transform="matrix(1,0,0,1,-1.854,-2.509)">
                <g id="Group_3">
                    <path id="Path_51" serif:id="Path_5" d="M66.606,8.367L69.78,8.367L69.78,9.882L64.934,9.882L64.934,3.082L69.78,3.082L69.78,4.6L66.606,4.6L66.606,5.66L69.255,5.66L69.255,7.173L66.606,7.173L66.606,8.367Z" style="fill:rgb(247,247,247);fill-rule:nonzero;"/>
                </g>
            </g>
            <g id="Path_6" transform="matrix(1,0,0,1,-1.627,-2.777)">
                <g id="Group_4">
                    <path id="Path_61" serif:id="Path_6" d="M62.425,14.826C62.427,15.148 62.363,15.467 62.236,15.763C62.114,16.05 61.94,16.312 61.722,16.535C61.502,16.757 61.241,16.933 60.954,17.055C60.658,17.181 60.339,17.245 60.017,17.243L58.569,17.243L58.569,19.215L57.055,19.215L57.055,12.415L60.016,12.415C60.338,12.413 60.657,12.478 60.953,12.604C61.533,12.845 61.994,13.306 62.235,13.885C62.362,14.182 62.427,14.503 62.425,14.826ZM58.568,15.817L60.015,15.817C60.147,15.818 60.278,15.791 60.4,15.739C60.638,15.637 60.827,15.448 60.929,15.21C61.078,14.859 61.008,14.451 60.749,14.17C60.588,13.993 60.369,13.877 60.132,13.845L58.568,13.845L58.568,15.818L58.568,15.817Z" style="fill:rgb(247,247,247);fill-rule:nonzero;"/>
                </g>
            </g>
            <g id="Path_7" transform="matrix(1,0,0,1,-1.831,-2.769)">
                <g id="Group_5">
                    <path id="Path_71" serif:id="Path_7" d="M64.156,15.717C64.152,15.236 64.24,14.758 64.414,14.309C64.577,13.888 64.816,13.501 65.12,13.168C65.415,12.847 65.771,12.586 66.167,12.402C66.569,12.215 67.008,12.119 67.451,12.121C67.9,12.118 68.344,12.214 68.751,12.402C69.149,12.585 69.507,12.846 69.804,13.168C70.108,13.501 70.347,13.888 70.51,14.309C70.684,14.758 70.772,15.236 70.768,15.717C70.772,16.194 70.684,16.667 70.51,17.111C70.347,17.53 70.108,17.916 69.804,18.248C69.507,18.57 69.149,18.83 68.751,19.013C68.344,19.201 67.9,19.297 67.451,19.294C67.008,19.296 66.569,19.2 66.167,19.013C65.771,18.829 65.415,18.569 65.12,18.248C64.817,17.916 64.577,17.53 64.414,17.111C64.24,16.667 64.152,16.194 64.156,15.717ZM65.525,15.717C65.523,15.998 65.575,16.277 65.678,16.539C65.774,16.784 65.915,17.009 66.092,17.203C66.264,17.391 66.472,17.542 66.703,17.648C66.938,17.756 67.193,17.811 67.451,17.81C67.714,17.811 67.974,17.756 68.213,17.648C68.447,17.542 68.657,17.391 68.832,17.203C69.012,17.011 69.153,16.785 69.246,16.539C69.348,16.277 69.399,15.998 69.396,15.717C69.398,15.436 69.347,15.156 69.246,14.894C69.152,14.647 69.011,14.42 68.832,14.226C68.658,14.035 68.447,13.88 68.213,13.771C67.974,13.66 67.714,13.603 67.451,13.604C67.192,13.603 66.937,13.66 66.703,13.771C66.471,13.881 66.264,14.036 66.092,14.226C65.916,14.423 65.776,14.649 65.678,14.894C65.575,15.156 65.523,15.435 65.525,15.717Z" style="fill:rgb(247,247,247);fill-rule:nonzero;"/>
                </g>
            </g>
        </g>
    </g>
</svg>
