<?xml version="1.0" encoding="UTF-8" standalone="no"?>
<!DOCTYPE svg PUBLIC "-//W3C//DTD SVG 1.1//EN" "http://www.w3.org/Graphics/SVG/1.1/DTD/svg11.dtd">
<svg width="100%" height="100%" viewBox="0 0 128 128" version="1.1" xmlns="http://www.w3.org/2000/svg" xmlns:xlink="http://www.w3.org/1999/xlink" xml:space="preserve" xmlns:serif="http://www.serif.com/" style="fill-rule:evenodd;clip-rule:evenodd;stroke-linejoin:round;stroke-miterlimit:2;">
    <g transform="matrix(1.3913,0,0,1.3913,1.3913,3.55271e-15)">
        <path d="M91,23L91,69C91,81.694 80.694,92 68,92L22,92C9.306,92 -1,81.694 -1,69L-1,23C-1,10.306 9.306,0 22,0L68,0C80.694,0 91,10.306 91,23Z" style="fill:rgb(179,11,0);"/>
    </g>
    <g transform="matrix(0.259778,0,0,0.259778,-2.86189,-13.5577)">
        <path d="M414.376,370.658C411.888,366.286 408.496,362.14 404.275,358.371C400.808,355.205 396.737,352.265 392.138,349.551C373.594,338.621 347.135,333.344 311.177,333.344L307.559,333.344C305.599,331.535 303.564,329.726 301.453,327.841C287.809,315.554 276.954,302.211 268.511,287.361C285.095,250.8 293.01,218.235 292.03,190.494C291.879,185.82 291.201,181.448 289.995,177.377C288.186,170.819 285.171,165.014 280.949,160.265C280.874,160.19 280.874,160.19 280.798,160.114C274.089,152.576 264.742,148.279 255.243,148.279C245.669,148.279 236.85,152.425 230.442,160.039C224.11,167.577 220.718,177.905 220.567,190.041C220.341,208.585 221.848,226.149 225.015,242.356C225.316,243.638 225.543,244.919 225.844,246.2C229.01,260.9 233.684,274.845 239.714,287.811C232.628,302.209 225.467,314.647 220.491,323.09C216.722,329.498 212.576,336.207 208.279,342.916C188.906,346.384 172.472,350.605 158.15,355.882C138.777,362.893 123.248,371.938 112.091,382.718C104.854,389.653 99.954,397.041 97.542,404.73C94.979,412.645 95.13,420.56 97.994,427.646C100.632,434.204 105.381,439.707 111.714,443.476C113.222,444.381 114.805,445.134 116.463,445.813C121.288,447.773 126.564,448.828 132.067,448.828C144.807,448.828 157.923,443.325 169.004,433.45C189.659,414.981 210.992,385.281 223.581,366.51C233.908,364.927 245.14,363.57 257.805,362.213C272.731,360.705 285.923,359.801 297.909,359.348C301.603,362.665 305.146,365.831 308.538,368.846C327.384,385.656 341.706,397.793 354.672,406.311C354.672,406.386 354.747,406.386 354.823,406.386C359.949,409.778 364.849,412.567 369.749,414.829C375.252,417.392 380.83,418.749 386.559,418.749C393.796,418.749 400.58,416.563 406.234,412.568C411.963,408.422 416.109,402.467 417.994,395.758C420.18,387.694 418.899,378.724 414.376,370.658ZM247.705,219.667C246.65,210.319 246.197,200.595 246.348,190.343C246.499,180.619 250.042,174.06 255.243,174.06C259.163,174.06 263.309,177.603 265.193,184.387C265.721,186.422 266.098,188.759 266.173,191.397C266.324,194.563 266.248,197.88 266.098,201.272C265.646,210.846 263.987,221.022 261.123,231.953C259.389,238.964 257.128,246.276 254.339,253.889C251.173,243.186 248.911,231.803 247.705,219.667ZM121.967,418.073C120.685,414.907 122.118,408.801 129.958,401.263C141.944,389.805 160.714,380.759 186.872,373.899C181.897,380.683 176.997,386.865 172.248,392.518C165.011,401.262 158.076,408.65 151.819,414.228C146.467,419.052 140.587,422.068 135.009,422.822C134.029,422.973 133.049,423.048 132.069,423.048C127.168,423.049 123.173,421.089 121.967,418.073ZM242.428,337.942L242.956,337.113L242.127,337.264C242.278,336.887 242.504,336.51 242.73,336.209C245.896,330.857 249.891,323.997 254.188,316.082L254.565,316.911L255.545,314.876C258.711,319.399 262.179,323.847 265.797,328.143C267.531,330.178 269.34,332.138 271.149,334.098L269.943,334.173L270.998,335.153C267.907,335.379 264.666,335.681 261.424,335.982C259.389,336.208 257.278,336.359 255.167,336.585C250.796,337.037 246.499,337.49 242.428,337.942ZM369.297,384.98C360.326,379.251 350.301,371.185 337.938,360.405C355.502,362.214 369.297,366.059 379.097,371.788C383.394,374.276 386.635,376.839 388.821,379.326C392.439,383.17 393.721,386.638 393.042,388.975C392.439,391.312 389.801,392.895 386.559,392.895C384.674,392.895 382.715,392.443 380.679,391.463C377.211,389.805 373.593,387.769 369.749,385.282C369.598,385.282 369.448,385.131 369.297,384.98Z" style="fill:rgb(242,242,242);fill-rule:nonzero;"/>
    </g>
</svg>
